<svg xmlns="http://www.w3.org/2000/svg" xmlns:xlink="http://www.w3.org/1999/xlink" viewBox="0 0 1024 1024"><defs><style>.cls-1{isolation:isolate;}.cls-2{fill:#fff9ec;}.cls-3{opacity:0.3;fill:url(#linear-gradient);}.cls-3,.cls-5{mix-blend-mode:multiply;}.cls-4{fill:#2e9397;}.cls-5{opacity:0.18;}.cls-6{fill:url(#linear-gradient-2);}.cls-7{fill:#f9be7c;}.cls-8{opacity:0.23;fill:url(#linear-gradient-3);}</style><linearGradient id="linear-gradient" x1="149.98" y1="440.55" x2="889.04" y2="566.74" gradientUnits="userSpaceOnUse"><stop offset="0" stop-color="#fff"/><stop offset="0.11" stop-color="#fbfbfb"/><stop offset="0.24" stop-color="#ededed"/><stop offset="0.37" stop-color="#d8d8d8"/><stop offset="0.5" stop-color="#b9b9b9"/><stop offset="0.63" stop-color="#929292"/><stop offset="0.77" stop-color="#626262"/><stop offset="0.91" stop-color="#2a2a2a"/><stop offset="1"/></linearGradient><linearGradient id="linear-gradient-2" x1="288.33" y1="515.64" x2="742.13" y2="515.64" gradientUnits="userSpaceOnUse"><stop offset="0" stop-color="#fff"/><stop offset="0.09" stop-color="#f7f7f7"/><stop offset="0.22" stop-color="#e2e2e2"/><stop offset="0.38" stop-color="#bebebe"/><stop offset="0.57" stop-color="#8d8d8d"/><stop offset="0.77" stop-color="#4e4e4e"/><stop offset="0.99" stop-color="#030303"/><stop offset="1"/></linearGradient><linearGradient id="linear-gradient-3" x1="480.99" y1="505.99" x2="552.56" y2="505.99" xlink:href="#linear-gradient-2"/></defs><title>soleTraderAppLogo</title><g class="cls-1"><g id="Layer_5" data-name="Layer 5"><rect class="cls-2" width="1024" height="1024" rx="182.37" ry="182.37"/><path class="cls-3" d="M782.66,200.5V294a18,18,0,0,1-18,18H617.88a18,18,0,0,0-18,18V837.5a18,18,0,0,1-18,18H454.17a18,18,0,0,1-18-18V330a18,18,0,0,0-18-18H273.32a18,18,0,0,1-18-18V200.5a18,18,0,0,1,18-18H764.68A18,18,0,0,1,782.66,200.5Z"/><path class="cls-4" d="M768.66,186.5V280a18,18,0,0,1-18,18H603.88a18,18,0,0,0-18,18V823.5a18,18,0,0,1-18,18H440.17a18,18,0,0,1-18-18V316a18,18,0,0,0-18-18H259.32a18,18,0,0,1-18-18V186.5a18,18,0,0,1,18-18H750.68A18,18,0,0,1,768.66,186.5Z"/><g class="cls-5"><path class="cls-6" d="M658.85,293.86q51.9,43.33,70.47,110.53A18,18,0,0,1,712,427.12H596a18.05,18.05,0,0,1-17.07-12.37,81.35,81.35,0,0,0-26.66-38.56q-23.34-18.56-58.54-18.56-27.61,0-41.88,11.9t-14.27,33.79q0,24.76,26.17,37.12t82.33,24.75q60.91,14.28,100,29t67.58,48.07q28.54,33.33,28.55,89.47,0,45.69-24.75,80.9T646,767.87q-46.65,20-110.42,20-107.57,0-172.28-47.59Q307,698.9,288.89,626.57a18,18,0,0,1,17.42-22.41H426.44a18,18,0,0,1,17.4,13.49q6.54,24.52,26.54,38.86,25.22,18.09,65.2,18.08,27.6,0,41.88-12.85T591.74,628q0-27.6-26.17-39.5t-85.19-25.22q-59-12.36-97.09-26.65t-65.67-46.17Q290,458.54,290,403.32q0-71.38,54.26-115.65t153.24-44.26Q598.39,243.41,658.85,293.86Z"/><rect x="481" y="715.98" width="70" height="106" rx="17.98" ry="17.98"/><rect x="481" y="214.98" width="70" height="72" rx="17.98" ry="17.98"/></g><path class="cls-7" d="M644.85,279.86q51.9,43.33,70.47,110.53A18,18,0,0,1,698,413.12H582a18.05,18.05,0,0,1-17.07-12.37,81.35,81.35,0,0,0-26.66-38.56q-23.34-18.56-58.54-18.56-27.61,0-41.88,11.9t-14.27,33.79q0,24.76,26.17,37.12t82.33,24.75q60.91,14.28,100,29t67.58,48.07q28.54,33.33,28.55,89.47,0,45.69-24.75,80.9T632,753.87q-46.65,20-110.42,20-107.57,0-172.28-47.59Q293,684.9,274.89,612.57a18,18,0,0,1,17.42-22.41H412.44a18,18,0,0,1,17.4,13.49q6.54,24.52,26.54,38.86,25.22,18.09,65.2,18.08,27.6,0,41.88-12.85T577.74,614q0-27.6-26.17-39.5t-85.19-25.22q-59-12.36-97.09-26.65t-65.67-46.17Q276,444.54,276,389.32q0-71.38,54.26-115.65t153.24-44.26Q584.39,229.41,644.85,279.86Z"/><rect class="cls-7" x="467" y="701.98" width="70" height="106" rx="17.98" ry="17.98"/><rect class="cls-7" x="467" y="200.98" width="70" height="72" rx="17.98" ry="17.98"/><path class="cls-8" d="M481,589V441a18,18,0,0,1,18-18h34a18.57,18.57,0,0,1,3.61.36C544,448,552.56,462,552.56,503c0,46.34-18.52,82-18.52,82C518,581,488,587,481,589Z"/><rect class="cls-4" x="466.99" y="408.98" width="70" height="184" rx="17.98" ry="17.98"/></g></g></svg>